# xmcd
#
# Track frame offsets:
#	150
#	15655
#	27349
#	40158
#	54895
#	66425
#	80727
#	91861
#	105820
#	115945
#	127518
#	139886
#	156592
#	171215
#
# Disc length: 2458 seconds
#
# Revision: 3
# Processed by: cddbd v1.5.1PL0 Copyright (c) Steve Scherf et al.
# Submitted via: audiograbber 1.80
#
DISCID=ad09980e
DTITLE=Teodoro and Sampaio - Virus Da Paixão
DYEAR=1900
DGENRE=
TTITLE0=A Solteirona
TTITLE1=Amigo Descarado
TTITLE2=Vírus da Paixão
TTITLE3=A Empregada
TTITLE4=Whisky com Guaraná
TTITLE5=Tadinha da Minha Secretária
TTITLE6=Silicone
TTITLE7=Já Fui Bom Nisso
TTITLE8=Menino Sapeca
TTITLE9=O Beijo do Adeus
TTITLE10=Cachorro Louco
TTITLE11=Sou da Turma do Chapéu - Part. Marco Brasil
TTITLE12=Fogo no Rabo
TTITLE13=Paixão em Dose Dupla
EXTD=
EXTT0=
EXTT1=
EXTT2=
EXTT3=
EXTT4=
EXTT5=
EXTT6=
EXTT7=
EXTT8=
EXTT9=
EXTT10=
EXTT11=
EXTT12=
EXTT13=
PLAYORDER=
